<svg xmlns="http://www.w3.org/2000/svg" viewBox="0 0 800 1024" role="img" aria-label="Ivory Embroidered Panjabi">
  <defs>
    <linearGradient id="bg" x1="0" y1="0" x2="1" y2="1">
      <stop offset="0%" stop-color="#f0e4cc" />
      <stop offset="100%" stop-color="#b99e68" />
    </linearGradient>
    <linearGradient id="body" x1="0" y1="0" x2="0" y2="1">
      <stop offset="0%" stop-color="#fffdf8" />
      <stop offset="100%" stop-color="#e9deca" />
    </linearGradient>
    <pattern id="weave" width="16" height="16" patternUnits="userSpaceOnUse">
      <path d="M0 8 H16 M8 0 V16" stroke="#cfbe97" stroke-width="0.8" opacity="0.35" />
    </pattern>
  </defs>
  <rect width="800" height="1024" fill="url(#bg)" />
  <ellipse cx="400" cy="920" rx="210" ry="42" fill="#5a4927" opacity="0.2" />
  <path d="M252 230 C300 166 500 166 548 230 L598 860 C529 895 271 895 202 860 Z" fill="url(#body)" />
  <path d="M304 250 H496 V820 H304 Z" fill="url(#weave)" />
  <path d="M400 262 V548" stroke="#b08b49" stroke-width="8" stroke-dasharray="4 10" />
  <path d="M350 326 C370 300 430 300 450 326" stroke="#b08b49" stroke-width="4" fill="none" />
  <path d="M350 374 C370 348 430 348 450 374" stroke="#b08b49" stroke-width="4" fill="none" />
  <path d="M350 422 C370 396 430 396 450 422" stroke="#b08b49" stroke-width="4" fill="none" />
</svg>